<?xml version="1.0" encoding="UTF-8"?>
<svg xmlns="http://www.w3.org/2000/svg" version="1.1" viewBox="0 0 300 300">
  <!-- Generator: Adobe Illustrator 28.6.0, SVG Export Plug-In . SVG Version: 1.2.0 Build 709)  -->
  <g>
    <g id="Camada_1">
      <g>
        <path d="M16.89,231.67c0-51.65,0-103.3,0-154.94.8-.02,1.59-.06,2.39-.06,87.15,0,174.29,0,261.44,0,.8,0,1.59.04,2.39.06v154.94c-.8.02-1.59.06-2.39.06-87.15,0-174.29,0-261.44,0-.8,0-1.59-.04-2.39-.06ZM257.53,154.24c-7.03-4.64-13.83-9.1-20.6-13.61-8.12-5.41-16.22-10.86-24.33-16.28-8.11-5.43-16.24-10.82-24.33-16.28-9.48-6.39-18.92-12.84-28.4-19.22-3.27-2.2-6.62-4.27-9.87-6.36-5.77,3.81-11.4,7.51-17.02,11.24-8.06,5.36-16.1,10.74-24.14,16.12-8.24,5.51-16.48,11.03-24.7,16.57-7.24,4.88-14.45,9.8-21.7,14.67-2.5,1.68-5.09,3.21-7.59,4.89-3.93,2.65-7.82,5.37-12.03,8.27,4.14,2.87,7.94,5.58,11.81,8.17,11.27,7.53,22.59,15,33.87,22.52,4.95,3.3,9.84,6.7,14.79,10.01,9.03,6.02,18.1,12,27.14,18.01,6.21,4.13,12.38,8.31,18.62,12.39.47.31,1.52.26,2.01-.07,9.09-5.94,18.15-11.94,27.2-17.96,7.93-5.27,15.85-10.54,23.75-15.85,9.42-6.34,18.8-12.72,28.21-19.08,2.56-1.73,5.13-3.46,7.71-5.17,6.45-4.28,12.9-8.54,19.59-12.97Z"/>
        <path d="M192.69,179.01c-4.41,6.16-9.73,11.18-16.32,14.94-6.53,3.73-13.48,5.94-20.93,6.77-8.46.94-16.69.01-24.66-2.96-11.14-4.15-20-11.03-26.04-21.45-7.99-13.77-7.6-27.76-1.49-41.97.55-1.27,1.43-2.44,2.35-3.48.34-.39,1.3-.56,1.85-.39,6.38,1.94,12.78,3.83,19.09,5.99,11.52,3.95,22.31,9.49,32.71,15.76,4.88,2.95,9.64,6.17,14.09,9.73,6.18,4.94,12.02,10.3,17.99,15.5.47.41.83.94,1.37,1.56Z"/>
        <path d="M113.63,120.81c2.21-1.66,3.94-3.13,5.83-4.37,10.6-6.97,22.24-9.89,34.9-8.79,11.01.95,20.77,5.01,29.34,11.88,2.39,1.92,4.61,4.16,6.5,6.57,9.76,12.51,12.29,26.45,7.85,42.15-24.08-22.93-52.08-38.41-84.41-47.45Z"/>
      </g>
    </g>
  </g>
</svg>